<svg width="14" height="14" viewBox="0 0 14 14" fill="none" xmlns="http://www.w3.org/2000/svg">
<path d="M7.68341 0.452137L9.24195 3.74897C9.35677 3.98783 9.57592 4.1537 9.82867 4.19056L13.3294 4.72726C13.5339 4.75748 13.7194 4.87102 13.8447 5.04426C13.9687 5.2153 14.0219 5.43204 13.9918 5.64509C13.9673 5.82202 13.8881 5.98569 13.767 6.11101L11.2304 8.69938C11.0448 8.88 10.9608 9.14761 11.0056 9.40932L11.6302 13.0482C11.6967 13.4876 11.4201 13.9019 11.0056 13.9852C10.8348 14.014 10.6597 13.9838 10.5057 13.9012L7.38305 12.1886C7.1513 12.0655 6.87754 12.0655 6.64579 12.1886L3.52312 13.9012C3.13944 14.1157 2.66403 13.9697 2.45049 13.5716C2.37137 13.4131 2.34336 13.2325 2.36927 13.0563L2.9938 9.41669C3.03861 9.15572 2.9539 8.88664 2.76906 8.70602L0.232412 6.11912C-0.0693531 5.81244 -0.078455 5.30745 0.212107 4.98971C0.218409 4.98307 0.22541 4.9757 0.232412 4.96833C0.352838 4.83931 0.511072 4.75748 0.681908 4.7361L4.18266 4.19867C4.43471 4.16108 4.65386 3.99668 4.76939 3.75634L6.27191 0.452137C6.40564 0.169045 6.6829 -0.00714949 6.98396 0.000222678H7.07778C7.33894 0.0333974 7.56649 0.203695 7.68341 0.452137Z" fill="#D27304"/>
</svg>
