<svg width="28" height="27" viewBox="0 0 28 27" fill="none" xmlns="http://www.w3.org/2000/svg">
<g id="606d65a3b1bff36094e49f77_amazon-icon 1" clip-path="url(#clip0_2042_230)">
<path id="Vector" d="M14.1104 27C21.5662 27 27.6104 20.9558 27.6104 13.5C27.6104 6.04416 21.5662 0 14.1104 0C6.65451 0 0.610352 6.04416 0.610352 13.5C0.610352 20.9558 6.65451 27 14.1104 27Z" fill="#999999"/>
<g id="Group">
<path id="Vector_2" d="M22.2104 15.5521C22.1564 15.8491 22.1024 16.1191 22.0214 16.4161C21.8594 16.9291 21.5894 17.4151 21.1844 17.7931C21.1304 17.8471 21.0494 17.9281 20.9414 17.8741C20.8604 17.8201 20.9144 17.7121 20.9414 17.6311C21.1034 17.1721 21.2384 16.7401 21.3734 16.2811C21.4004 16.1731 21.4274 16.0381 21.4274 15.9031C21.4274 15.6871 21.3464 15.5791 21.1574 15.5521C20.9684 15.5251 20.7524 15.4981 20.5634 15.4981C20.1584 15.5251 19.7534 15.5521 19.3484 15.5791C19.2944 15.5791 19.2134 15.6061 19.1864 15.5251C19.1594 15.4441 19.2134 15.3901 19.2674 15.3361C19.4834 15.1741 19.7534 15.0661 20.0234 14.9851C20.6444 14.8231 21.2654 14.7691 21.9134 14.9311C22.1024 14.9851 22.2104 15.0661 22.2374 15.2551C22.2104 15.3631 22.2104 15.4711 22.2104 15.5521Z" fill="#101010"/>
<path id="Vector_3" d="M18.4574 8.99097C18.6194 9.01797 18.7544 9.09897 18.8084 9.28797C18.8624 9.47697 18.7814 9.66597 18.6464 9.74697C18.4844 9.82797 18.2414 9.82797 18.1334 9.69297C18.0254 9.58497 17.9714 9.34197 18.0794 9.17997C18.1604 9.04497 18.2684 9.01797 18.4034 8.99097C18.4034 8.99097 18.4304 8.99097 18.4574 8.99097Z" fill="#101010"/>
<path id="Vector_4" d="M14.0025 18.549C11.4915 18.522 9.22345 17.793 7.17145 16.335C6.79345 16.065 6.46945 15.768 6.11845 15.471C6.06445 15.417 6.01046 15.336 6.03746 15.255C6.06446 15.201 6.11845 15.174 6.14545 15.147C6.19945 15.147 6.25346 15.174 6.30746 15.201C6.65846 15.39 6.98246 15.579 7.33345 15.741C8.46745 16.281 9.62845 16.686 10.8705 16.929C11.4645 17.037 12.0855 17.145 12.6795 17.226C13.3545 17.307 14.0565 17.334 14.7315 17.28C15.3255 17.253 15.9465 17.199 16.5405 17.118C17.3775 17.01 18.2145 16.821 18.9975 16.551C19.4295 16.416 19.8615 16.227 20.2935 16.092C20.3475 16.065 20.4285 16.038 20.5095 16.038C20.6175 16.038 20.7255 16.092 20.7525 16.173C20.7795 16.281 20.7795 16.389 20.6715 16.443C20.5365 16.551 20.4015 16.632 20.2665 16.713C19.0785 17.469 17.7825 17.955 16.4055 18.225C15.8925 18.333 15.3795 18.387 14.8665 18.441C14.5695 18.468 14.2725 18.441 13.9755 18.441C14.0025 18.522 14.0025 18.522 14.0025 18.549Z" fill="#101010"/>
<path id="Vector_5" d="M6.76656 10.6919C6.90156 10.6109 7.03656 10.5299 7.19856 10.4759C7.52256 10.3139 7.87356 10.2599 8.22456 10.3139C8.46756 10.3679 8.65656 10.4759 8.76456 10.6919L8.79156 10.7189C9.03456 10.5569 9.27756 10.4219 9.57456 10.3409C9.81756 10.2869 10.0876 10.2599 10.3306 10.3139C10.7086 10.3949 10.9516 10.6919 10.9786 11.0699C11.0056 11.4209 11.0056 11.7719 11.0056 12.1499C11.0056 12.6089 11.0056 13.0409 11.0056 13.4999C11.0056 13.6619 10.9786 13.6889 10.8166 13.6889C10.7356 13.6889 10.6276 13.6889 10.5466 13.6889C10.3846 13.6889 10.3576 13.6619 10.3576 13.4999C10.3576 12.7979 10.3576 12.1229 10.3576 11.4209C10.3576 11.3399 10.3306 11.2319 10.3306 11.1509C10.2766 10.9619 10.1416 10.8539 9.92556 10.8269C9.57456 10.7999 9.25056 10.9079 8.95356 11.0969C8.92656 11.1239 8.92656 11.1779 8.92656 11.2049C8.92656 11.9609 8.92656 12.7439 8.92656 13.4999C8.92656 13.6619 8.89956 13.6889 8.73756 13.6889C8.62956 13.6889 8.52156 13.6889 8.44056 13.6889C8.33256 13.6889 8.30556 13.6349 8.27856 13.5269C8.27856 13.4729 8.27856 13.3919 8.27856 13.3379C8.27856 12.6629 8.27856 12.0149 8.27856 11.3399C8.27856 10.9349 8.06256 10.7729 7.65756 10.7999C7.41456 10.8269 7.17156 10.9079 6.92856 11.0159C6.87456 11.0429 6.84756 11.0969 6.84756 11.1779C6.84756 11.9339 6.84756 12.6899 6.84756 13.4459C6.84756 13.6619 6.82056 13.6619 6.63156 13.6619C6.55056 13.6619 6.44256 13.6619 6.36156 13.6619C6.25356 13.6619 6.22656 13.6349 6.22656 13.4999C6.22656 12.5009 6.22656 11.5019 6.22656 10.5029C6.22656 10.3949 6.25356 10.3679 6.36156 10.3409C6.44256 10.3409 6.52356 10.3409 6.60456 10.3409C6.73956 10.3409 6.76656 10.3679 6.79356 10.5029C6.73956 10.5839 6.76656 10.6379 6.76656 10.6919Z" fill="#101010"/>
<path id="Vector_6" d="M13.9756 13.3649C13.7326 13.4729 13.5166 13.6079 13.2736 13.6889C13.0036 13.7969 12.7066 13.7969 12.4096 13.7159C12.0856 13.6349 11.8426 13.3379 11.8156 13.0139C11.8156 12.8789 11.7886 12.7439 11.7886 12.6089C11.7886 11.9339 11.7886 11.2319 11.7886 10.5569C11.7886 10.3949 11.8156 10.3679 11.9776 10.3679C12.0586 10.3679 12.1666 10.3679 12.2476 10.3679C12.3826 10.3679 12.4366 10.4219 12.4366 10.5569C12.4366 10.7729 12.4366 10.9889 12.4366 11.2049C12.4366 11.6909 12.4366 12.1769 12.4366 12.6899C12.4366 13.0679 12.5986 13.2569 13.0036 13.2569C13.1656 13.2569 13.3276 13.2299 13.4626 13.1759C13.5976 13.1489 13.7056 13.0679 13.8136 13.0139C13.8946 12.9869 13.8946 12.9329 13.8946 12.8519C13.8946 12.0959 13.8946 11.3669 13.8946 10.6109C13.8946 10.4219 13.9216 10.3949 14.1106 10.3949C14.1916 10.3949 14.2726 10.3949 14.3806 10.3949C14.5156 10.3949 14.5426 10.4489 14.5426 10.5839C14.5426 11.5289 14.5426 12.4739 14.5426 13.4459C14.5426 13.4729 14.5426 13.5269 14.5426 13.5539C14.5426 13.6619 14.5156 13.6889 14.4076 13.7159C14.3266 13.7159 14.2186 13.7159 14.1376 13.7159C14.0566 13.7159 14.0026 13.6619 13.9756 13.5809C14.0026 13.4729 13.9756 13.4189 13.9756 13.3649Z" fill="#101010"/>
<path id="Vector_7" d="M16.1356 13.7699C15.9466 13.7699 15.6226 13.7159 15.3256 13.6079C15.2176 13.5539 15.1636 13.4999 15.1636 13.3649C15.1636 13.3109 15.1636 13.2569 15.1636 13.2029C15.1636 13.0949 15.2176 13.0679 15.3256 13.0949C15.5146 13.1489 15.7036 13.2029 15.8926 13.2299C16.1086 13.2569 16.3246 13.2569 16.5136 13.2299C16.8106 13.2029 16.9726 12.9329 16.9186 12.6899C16.8916 12.5549 16.7836 12.5009 16.6756 12.4469C16.4866 12.3659 16.2706 12.2849 16.0546 12.2039C15.9196 12.1499 15.7846 12.0959 15.6496 12.0149C15.2986 11.7989 15.1366 11.4749 15.1906 11.0699C15.2446 10.6919 15.4876 10.4759 15.8116 10.3679C16.2166 10.2059 16.6216 10.2599 17.0536 10.3679C17.3506 10.4489 17.3776 10.4759 17.3506 10.7999C17.3506 10.8809 17.2966 10.9349 17.2156 10.9079C17.0266 10.8809 16.8376 10.7999 16.6486 10.7999C16.4596 10.7729 16.2976 10.7999 16.1086 10.8269C15.9466 10.8539 15.8386 10.9619 15.8116 11.1239C15.7846 11.2859 15.8386 11.4479 16.0006 11.5289C16.2706 11.6369 16.5406 11.7449 16.8106 11.8799C16.9186 11.9339 16.9996 11.9609 17.1076 12.0149C17.6746 12.3119 17.6206 13.1219 17.2426 13.4729C16.9996 13.6619 16.6756 13.7699 16.1356 13.7699Z" fill="#101010"/>
<path id="Vector_8" d="M19.4023 12.0419C19.4023 11.6639 19.4833 11.2859 19.6993 10.9349C19.9153 10.5839 20.2663 10.3949 20.6713 10.3139C21.0223 10.2599 21.3463 10.2869 21.6703 10.3949C21.8053 10.4489 21.8323 10.4759 21.8323 10.6379C21.8323 10.6919 21.8323 10.7189 21.8323 10.7729C21.8323 10.9349 21.7783 10.9619 21.6433 10.9349C21.5083 10.9079 21.3463 10.8809 21.2113 10.8539C21.0493 10.8539 20.9143 10.8539 20.7523 10.8809C20.4553 10.9349 20.2393 11.1239 20.1583 11.4209C20.0503 11.7989 20.0503 12.1769 20.1583 12.5819C20.2663 12.9869 20.5363 13.1489 20.9683 13.2029C21.2113 13.2299 21.4543 13.1759 21.6973 13.1219C21.8323 13.0949 21.8863 13.1219 21.8863 13.2569C21.8863 13.5809 21.8863 13.5809 21.5893 13.6619C21.1573 13.7699 20.7523 13.7699 20.3203 13.6349C19.8343 13.4459 19.5643 13.0679 19.4833 12.5549C19.4293 12.3659 19.4293 12.2039 19.4023 12.0419Z" fill="#101010"/>
<path id="Vector_9" d="M18.7546 12.0149C18.7546 12.5009 18.7546 12.9869 18.7546 13.4729C18.7546 13.6079 18.7276 13.6619 18.5656 13.6619C18.4846 13.6619 18.4036 13.6619 18.2956 13.6619C18.1336 13.6619 18.0796 13.6349 18.0796 13.4459C18.0796 12.5819 18.0796 11.7179 18.0796 10.8539C18.0796 10.7459 18.0796 10.6379 18.0796 10.5299C18.0796 10.3949 18.1336 10.3679 18.2416 10.3679C18.3496 10.3679 18.4576 10.3679 18.5386 10.3679C18.6736 10.3679 18.7276 10.4219 18.7276 10.5569C18.7546 11.0429 18.7546 11.5289 18.7546 12.0149Z" fill="#101010"/>
</g>
</g>
<defs>
<clipPath id="clip0_2042_230">
<rect width="27" height="27" fill="white" transform="translate(0.610352)"/>
</clipPath>
</defs>
</svg>
