<svg width="27" height="27" viewBox="0 0 27 27" fill="none" xmlns="http://www.w3.org/2000/svg">
<path id="Vector" d="M13.5 0C6.075 0 0 6.075 0 13.5C0 20.925 6.075 27 13.5 27C20.925 27 27 20.925 27 13.5C27 6.075 20.9925 0 13.5 0ZM18.5625 19.7775C15.39 17.82 11.4075 17.4139 6.68136 18.4939C6.21111 18.6311 5.805 18.2925 5.66999 17.8875C5.535 17.4139 5.87249 17.01 6.27749 16.875C11.4075 15.7264 15.8625 16.2 19.3725 18.36C19.845 18.5625 19.9113 19.1014 19.7111 19.5075C19.4411 19.9114 18.9686 20.0475 18.5625 19.7775ZM19.9113 16.1325C16.2675 13.905 10.7325 13.23 6.47999 14.58C5.94111 14.715 5.33249 14.445 5.19749 13.905C5.0625 13.365 5.33249 12.7564 5.87249 12.6214C10.8 11.1375 16.875 11.8811 21.06 14.445C21.4661 14.6486 21.6675 15.3225 21.3311 15.795C20.9925 16.2675 20.385 16.47 19.9113 16.1325ZM5.80499 10.4636C5.13 10.665 4.455 10.26 4.2525 9.6525C4.05 8.97638 4.455 8.3025 5.0625 8.09888C9.85499 6.68138 17.7525 6.95138 22.7486 9.9225C23.355 10.26 23.5575 11.07 23.22 11.6775C22.8836 12.1511 22.0725 12.3514 21.4661 12.015C17.145 9.45 9.92249 9.18 5.80499 10.4636Z" fill="#999999"/>
</svg>
