<svg width="21" height="22" viewBox="0 0 21 22" fill="none" xmlns="http://www.w3.org/2000/svg">
<path d="M15.3561 6.79824V14.6951C15.3561 18.6028 12.071 21.7705 8.01862 21.7705C3.96625 21.7705 0.681152 18.6028 0.681152 14.6951C0.681152 10.7874 3.96625 7.61968 8.01862 7.61968C8.60144 7.61968 9.16834 7.6852 9.71188 7.809V11.2519C9.19871 11.0167 8.62458 10.8853 8.01862 10.8853C5.83657 10.8853 4.06768 12.591 4.06768 14.6951C4.06768 16.7992 5.83657 18.5049 8.01862 18.5049C10.2007 18.5049 11.9696 16.7992 11.9696 14.6951V0H15.3561C15.3561 3.00588 17.8831 5.44263 21.0003 5.44263V8.7082C18.8646 8.7082 16.9021 7.99335 15.3561 6.79824Z" fill="#999999"/>
</svg>
