<svg width="15" height="16" viewBox="0 0 15 16" fill="none" xmlns="http://www.w3.org/2000/svg">
<path d="M10.4725 5.13593V10.6262C10.4725 13.343 8.18855 15.5453 5.37112 15.5453C2.55372 15.5453 0.269775 13.343 0.269775 10.6262C0.269775 7.90937 2.55372 5.70703 5.37112 5.70703C5.77632 5.70703 6.17046 5.75258 6.54835 5.83866V8.2323C6.19157 8.06883 5.79241 7.97741 5.37112 7.97741C3.85406 7.97741 2.62424 9.1633 2.62424 10.6262C2.62424 12.0891 3.85406 13.275 5.37112 13.275C6.88818 13.275 8.11799 12.0891 8.11799 10.6262V0.409485H10.4725C10.4725 2.49931 12.2294 4.19345 14.3966 4.19345V6.46382C12.9118 6.46382 11.5474 5.96682 10.4725 5.13593Z" fill="#E2E2E2"/>
</svg>
