<svg width="19" height="16" viewBox="0 0 19 16" fill="none" xmlns="http://www.w3.org/2000/svg">
<path d="M10.0083 0.409546C10.4933 0.412327 11.7069 0.42455 12.9964 0.478352L13.4536 0.499117C14.7518 0.563145 16.049 0.672527 16.6924 0.85939C17.5505 1.11052 18.225 1.84328 18.453 2.77212C18.816 4.24709 18.8614 7.12589 18.867 7.82256L18.8679 7.96692V7.97705C18.8679 7.97705 18.8679 7.98055 18.8679 7.98726L18.867 8.13163C18.8614 8.8283 18.816 11.7071 18.453 13.1821C18.2219 14.1143 17.5473 14.8471 16.6924 15.0948C16.049 15.2816 14.7518 15.391 13.4536 15.455L12.9964 15.4758C11.7069 15.5296 10.4933 15.5418 10.0083 15.5446L9.79538 15.5454H9.78594C9.78594 15.5454 9.78276 15.5454 9.77649 15.5454L9.56379 15.5446C8.53717 15.5388 4.24471 15.4904 2.87951 15.0948C2.02135 14.8436 1.34685 14.1109 1.11885 13.1821C0.755874 11.7071 0.710501 8.8283 0.704834 8.13163V7.82256C0.710501 7.12589 0.755874 4.24709 1.11885 2.77212C1.35001 1.83983 2.02451 1.10708 2.87951 0.85939C4.24471 0.463688 8.53717 0.41543 9.56379 0.409546H10.0083ZM7.96956 4.66593V11.2882L13.4187 7.97705L7.96956 4.66593Z" fill="#E2E2E2"/>
</svg>
