<svg width="27" height="27" viewBox="0 0 27 27" fill="none" xmlns="http://www.w3.org/2000/svg">
<g id="Group 654">
<path id="Vector" d="M13.3057 26.6109C12.8986 26.6109 12.5081 26.4491 12.2202 26.1612C11.9323 25.8733 11.7705 25.4828 11.7705 25.0756V23.0286C11.7705 22.6215 11.9323 22.231 12.2202 21.9431C12.5081 21.6552 12.8986 21.4934 13.3057 21.4934C13.7129 21.4934 14.1034 21.6552 14.3913 21.9431C14.6792 22.231 14.841 22.6215 14.841 23.0286V25.0756C14.841 25.4828 14.6792 25.8733 14.3913 26.1612C14.1034 26.4491 13.7129 26.6109 13.3057 26.6109Z" fill="#999999"/>
<path id="Vector_2" d="M1.53524 15.864C1.12807 15.864 0.737575 15.7023 0.449661 15.4144C0.161748 15.1265 0 14.736 0 14.3288V12.2818C0 11.8747 0.161748 11.4842 0.449661 11.1962C0.737575 10.9083 1.12807 10.7466 1.53524 10.7466C1.94241 10.7466 2.33291 10.9083 2.62082 11.1962C2.90873 11.4842 3.07048 11.8747 3.07048 12.2818V14.3288C3.07048 14.736 2.90873 15.1265 2.62082 15.4144C2.33291 15.7023 1.94241 15.864 1.53524 15.864Z" fill="#999999"/>
<path id="Vector_3" d="M25.0753 15.864C24.6681 15.864 24.2776 15.7023 23.9897 15.4144C23.7018 15.1265 23.54 14.736 23.54 14.3288V12.2818C23.54 11.8747 23.7018 11.4842 23.9897 11.1962C24.2776 10.9083 24.6681 10.7466 25.0753 10.7466C25.4824 10.7466 25.8729 10.9083 26.1609 11.1962C26.4488 11.4842 26.6105 11.8747 26.6105 12.2818V14.3288C26.6105 14.736 26.4488 15.1265 26.1609 15.4144C25.8729 15.7023 25.4824 15.864 25.0753 15.864Z" fill="#999999"/>
<path id="Vector_4" d="M13.3057 5.11747C12.8986 5.11747 12.5081 4.95572 12.2202 4.66781C11.9323 4.37989 11.7705 3.9894 11.7705 3.58223V1.53524C11.7705 1.12807 11.9323 0.737575 12.2202 0.449661C12.5081 0.161748 12.8986 0 13.3057 0C13.7129 0 14.1034 0.161748 14.3913 0.449661C14.6792 0.737575 14.841 1.12807 14.841 1.53524V3.58223C14.841 3.9894 14.6792 4.37989 14.3913 4.66781C14.1034 4.95572 13.7129 5.11747 13.3057 5.11747Z" fill="#999999"/>
<path id="Vector_5" d="M7.42049 22.0052C7.01332 22.0052 6.62283 21.8434 6.33492 21.5555C6.047 21.2676 5.88525 20.8771 5.88525 20.4699V18.4229C5.88525 18.0158 6.047 17.6253 6.33492 17.3374C6.62283 17.0494 7.01332 16.8877 7.42049 16.8877C7.82766 16.8877 8.21816 17.0494 8.50607 17.3374C8.79399 17.6253 8.95573 18.0158 8.95573 18.4229V20.4699C8.95573 20.8771 8.79399 21.2676 8.50607 21.5555C8.21816 21.8434 7.82766 22.0052 7.42049 22.0052Z" fill="#999999"/>
<path id="Vector_6" d="M7.42049 14.3286C7.01332 14.3286 6.62283 14.1669 6.33492 13.879C6.047 13.5911 5.88525 13.2006 5.88525 12.7934V6.65243C5.88525 6.24526 6.047 5.85476 6.33492 5.56685C6.62283 5.27894 7.01332 5.11719 7.42049 5.11719C7.82766 5.11719 8.21816 5.27894 8.50607 5.56685C8.79399 5.85476 8.95573 6.24526 8.95573 6.65243V12.7934C8.95573 13.2006 8.79399 13.5911 8.50607 13.879C8.21816 14.1669 7.82766 14.3286 7.42049 14.3286Z" fill="#999999"/>
<path id="Vector_7" d="M13.3057 19.4465C12.8986 19.4465 12.5081 19.2847 12.2202 18.9968C11.9323 18.7089 11.7705 18.3184 11.7705 17.9112V8.69979C11.7705 8.29262 11.9323 7.90213 12.2202 7.61421C12.5081 7.3263 12.8986 7.16455 13.3057 7.16455C13.7129 7.16455 14.1034 7.3263 14.3913 7.61421C14.6792 7.90213 14.841 8.29262 14.841 8.69979V17.9112C14.841 18.3184 14.6792 18.7089 14.3913 18.9968C14.1034 19.2847 13.7129 19.4465 13.3057 19.4465Z" fill="#999999"/>
<g id="Group">
<path id="Vector_8" d="M19.191 9.97928C18.7838 9.97928 18.3933 9.81753 18.1054 9.52962C17.8175 9.24171 17.6558 8.85121 17.6558 8.44404V6.39706C17.6558 5.98989 17.8175 5.59939 18.1054 5.31148C18.3933 5.02356 18.7838 4.86182 19.191 4.86182C19.5982 4.86182 19.9887 5.02356 20.2766 5.31148C20.5645 5.59939 20.7262 5.98989 20.7262 6.39706V8.44404C20.7262 8.85121 20.5645 9.24171 20.2766 9.52962C19.9887 9.81753 19.5982 9.97928 19.191 9.97928Z" fill="#999999"/>
<path id="Vector_9" d="M19.191 21.7495C18.7838 21.7495 18.3933 21.5878 18.1054 21.2999C17.8175 21.012 17.6558 20.6215 17.6558 20.2143V14.0733C17.6558 13.6662 17.8175 13.2757 18.1054 12.9877C18.3933 12.6998 18.7838 12.5381 19.191 12.5381C19.5982 12.5381 19.9887 12.6998 20.2766 12.9877C20.5645 13.2757 20.7262 13.6662 20.7262 14.0733V20.2143C20.7262 20.6215 20.5645 21.012 20.2766 21.2999C19.9887 21.5878 19.5982 21.7495 19.191 21.7495Z" fill="#999999"/>
</g>
</g>
</svg>
