<svg width="17" height="16" viewBox="0 0 17 16" fill="none" xmlns="http://www.w3.org/2000/svg">
<path id="Vector" d="M2.2665 8.42105H4.6665C5.55016 8.42105 6.2665 9.17507 6.2665 10.1053V14.3158C6.2665 15.246 5.55016 16 4.6665 16H2.2665C1.38285 16 0.666504 15.246 0.666504 14.3158V8.42105C0.666504 3.77023 4.24822 0 8.6665 0C13.0847 0 16.6665 3.77023 16.6665 8.42105V14.3158C16.6665 15.246 15.9502 16 15.0665 16H12.6665C11.7828 16 11.0665 15.246 11.0665 14.3158V10.1053C11.0665 9.17507 11.7828 8.42105 12.6665 8.42105H15.0665C15.0665 4.7004 12.2011 1.68421 8.6665 1.68421C5.13188 1.68421 2.2665 4.7004 2.2665 8.42105Z" fill="#C2C2C2"/>
</svg>
