<svg width="23" height="22" viewBox="0 0 23 22" fill="none" xmlns="http://www.w3.org/2000/svg">
<path d="M12.99 0C14.2151 0.00202473 14.8359 0.00851261 15.3724 0.0244819L15.5836 0.0313834C15.8277 0.0400593 16.0685 0.0509448 16.3588 0.0645519C17.5171 0.118077 18.3073 0.301315 19.0013 0.570735C19.7188 0.847415 20.3248 1.22115 20.9298 1.82622C21.5339 2.43128 21.9078 3.03906 22.1853 3.75479C22.4538 4.44784 22.6371 5.23887 22.6915 6.39728C22.7045 6.68757 22.7149 6.92836 22.7235 7.17246L22.7304 7.38374C22.7463 7.92012 22.7536 8.54102 22.7559 9.76614L22.7567 10.5778C22.7568 10.6769 22.7568 10.7793 22.7568 10.8849L22.7567 11.1919L22.7561 12.0037C22.754 13.2288 22.7476 13.8497 22.7316 14.386L22.7246 14.5973C22.716 14.8415 22.7051 15.0823 22.6915 15.3725C22.638 16.5309 22.4538 17.321 22.1853 18.015C21.9086 18.7325 21.5339 19.3385 20.9298 19.9436C20.3248 20.5477 19.716 20.9214 19.0013 21.199C18.3073 21.4676 17.5171 21.6508 16.3588 21.7052C16.0685 21.7181 15.8277 21.7287 15.5836 21.7372L15.3724 21.7441C14.8359 21.7601 14.2151 21.7672 12.99 21.7696L12.1783 21.7705C12.0791 21.7705 11.9768 21.7705 11.8712 21.7705H11.5641L10.7524 21.7697C9.52732 21.7678 8.90642 21.7613 8.37004 21.7453L8.15877 21.7384C7.91466 21.7297 7.67387 21.7188 7.38359 21.7052C6.22518 21.6517 5.43597 21.4676 4.74111 21.199C4.02446 20.9224 3.41759 20.5477 2.81253 19.9436C2.20748 19.3385 1.83464 18.7298 1.55706 18.015C1.28764 17.321 1.10531 16.5309 1.05088 15.3725C1.03795 15.0823 1.0274 14.8415 1.01885 14.5973L1.01201 14.386C0.996082 13.8497 0.988821 13.2288 0.98647 12.0037L0.986328 9.76614C0.988353 8.54102 0.99483 7.92012 1.0108 7.38374L1.01771 7.17246C1.02639 6.92836 1.03727 6.68757 1.05088 6.39728C1.10439 5.23796 1.28764 4.44875 1.55706 3.75479C1.83373 3.03815 2.20748 2.43128 2.81253 1.82622C3.41759 1.22115 4.02538 0.848319 4.74111 0.570735C5.43507 0.301315 6.22427 0.11898 7.38359 0.0645519C7.67387 0.0516306 7.91466 0.0410825 8.15877 0.0325373L8.37004 0.02569C8.90642 0.00975339 9.52732 0.00249275 10.7524 0.000141446L12.99 0ZM11.8712 5.44206C8.8636 5.44206 6.42838 7.87994 6.42838 10.8849C6.42838 13.8925 8.86625 16.3277 11.8712 16.3277C14.8788 16.3277 17.314 13.8898 17.314 10.8849C17.314 7.87729 14.8761 5.44206 11.8712 5.44206ZM11.8712 7.61919C13.6749 7.61919 15.1369 9.08078 15.1369 10.8849C15.1369 12.6885 13.6753 14.1506 11.8712 14.1506C10.0676 14.1506 8.6055 12.689 8.6055 10.8849C8.6055 9.08121 10.067 7.61919 11.8712 7.61919ZM17.5862 3.80922C16.8358 3.80922 16.2255 4.41871 16.2255 5.169C16.2255 5.91929 16.8349 6.52973 17.5862 6.52973C18.3364 6.52973 18.9469 5.92024 18.9469 5.169C18.9469 4.41871 18.3354 3.80828 17.5862 3.80922Z" fill="#999999"/>
</svg>
