<svg width="19" height="16" viewBox="0 0 19 16" fill="none" xmlns="http://www.w3.org/2000/svg">
<path id="Vector" d="M1.69675 6.32248H4.121V16H1.69675C1.25047 16 0.888672 15.6389 0.888672 15.1935V7.12894C0.888672 6.68355 1.25047 6.32248 1.69675 6.32248ZM5.97384 5.27982L11.146 0.118108C11.2881 -0.023788 11.5132 -0.0397478 11.674 0.0806483L12.363 0.59633C12.7547 0.889493 12.9312 1.38902 12.8104 1.86252L11.8784 5.51602H17.0503C17.9429 5.51602 18.6665 6.23815 18.6665 7.12894V8.82599C18.6665 9.03672 18.6251 9.24535 18.5448 9.44011L16.0442 15.5006C15.9195 15.8027 15.6244 16 15.297 16H6.54524C6.09895 16 5.73716 15.6389 5.73716 15.1935V5.85007C5.73716 5.63618 5.8223 5.43106 5.97384 5.27982Z" fill="#C2C2C2"/>
</svg>
