<svg width="23" height="22" viewBox="0 0 23 22" fill="none" xmlns="http://www.w3.org/2000/svg">
<path d="M12.7053 0.10278C7.32138 -0.639307 2.21531 2.70503 0.742475 7.9381C-0.730358 13.1712 1.88147 18.689 6.86162 20.8657C6.79624 20.0296 6.85579 19.1884 7.03828 18.37C7.23922 17.457 8.44907 12.4235 8.44907 12.4235C8.20799 11.8837 8.08742 11.2977 8.09575 10.7066C8.09575 9.09012 9.02846 7.8841 10.1889 7.8841C10.6107 7.87782 11.0143 8.05535 11.2948 8.37051C11.5753 8.68567 11.7049 9.10732 11.6499 9.52564C11.6499 10.5055 11.0203 11.988 10.6929 13.3782C10.5608 13.8956 10.6824 14.445 11.0204 14.8583C11.3585 15.2715 11.8729 15.4993 12.406 15.4721C14.4715 15.4721 15.8571 12.8255 15.8571 9.70154C15.8571 7.3062 14.2706 5.5139 11.3476 5.5139C9.93453 5.45927 8.56082 5.98642 7.5468 6.97244C6.53277 7.95845 5.96708 9.31719 5.98166 10.7317C5.95053 11.508 6.2009 12.2695 6.68664 12.8758C6.87348 13.0148 6.94558 13.2609 6.8633 13.4788C6.81307 13.6798 6.68664 14.1572 6.63639 14.3331C6.61521 14.4534 6.53823 14.5566 6.42892 14.611C6.31961 14.6655 6.19094 14.665 6.08213 14.6095C4.57507 14.0064 3.86506 12.3481 3.86506 10.4553C3.86506 7.35646 6.46057 3.64622 11.6516 3.64622C15.7835 3.64622 18.5297 6.66969 18.5297 9.90248C18.5297 14.1572 16.1611 17.3566 12.6597 17.3566C11.5961 17.3903 10.589 16.8787 9.98884 15.9997C9.98884 15.9997 9.3592 18.5207 9.23523 18.998C8.98218 19.8218 8.60861 20.6036 8.12673 21.318C9.13095 21.6227 10.1752 21.7752 11.2246 21.7704C14.1114 21.7722 16.8806 20.6257 18.9215 18.5832C20.9624 16.5408 22.1073 13.7702 22.104 10.8825C22.1008 5.44593 18.0893 0.844867 12.7053 0.10278Z" fill="#999999"/>
</svg>
