<svg width="1320" height="513" viewBox="0 0 1320 513" fill="none" xmlns="http://www.w3.org/2000/svg">
<path d="M660.013 513C741.66 513 813.941 471.203 858.482 406.939C862.777 400.743 872.232 400.744 876.525 406.941C921.048 471.203 993.352 513 1075 513C1210.29 513 1320 398.161 1320 256.5C1320 114.839 1210.29 -4.79547e-06 1074.97 -1.07105e-05C993.325 -1.42794e-05 921.043 41.7975 876.502 106.061C872.208 112.257 862.752 112.256 858.459 106.059C813.936 41.7966 741.634 -2.52812e-05 660.013 -2.88489e-05C578.391 -3.24168e-05 506.088 41.7975 461.544 106.061C457.25 112.257 447.794 112.256 443.501 106.059C398.978 41.7966 326.674 -4.34196e-05 245.029 -4.69885e-05C109.708 -5.29036e-05 -5.01977e-06 114.839 -1.1212e-05 256.5C-1.74042e-05 398.161 109.708 513 245.029 513C326.675 513 398.957 471.203 443.498 406.939C447.792 400.743 457.248 400.744 461.541 406.941C506.064 471.203 578.367 513 660.013 513Z" fill="white"/>
</svg>
