<svg width="25" height="20" viewBox="0 0 25 20" fill="none" xmlns="http://www.w3.org/2000/svg">
<path fill-rule="evenodd" clip-rule="evenodd" d="M22.8481 19.6211C23.5122 19.6211 24.0506 19.0827 24.0506 18.4186V18.4186C24.0506 17.7545 23.5122 17.2161 22.8481 17.2161H1.20253C0.538392 17.2161 0 17.7545 0 18.4186V18.4186C0 19.0827 0.538392 19.6211 1.20253 19.6211H22.8481ZM22.8481 11.2034C23.5122 11.2034 24.0506 10.665 24.0506 10.0009V10.0009C24.0506 9.33673 23.5122 8.79834 22.8481 8.79834H13.2278C12.5637 8.79834 12.0253 9.33673 12.0253 10.0009V10.0009C12.0253 10.665 12.5637 11.2034 13.2278 11.2034H22.8481ZM22.8481 2.78568C23.5122 2.78568 24.0506 2.24729 24.0506 1.58315V1.58315C24.0506 0.919007 23.5122 0.380615 22.8481 0.380615H13.2278C12.5637 0.380615 12.0253 0.919007 12.0253 1.58315V1.58315C12.0253 2.24729 12.5637 2.78568 13.2278 2.78568H22.8481Z" fill="white"/>
<path fill-rule="evenodd" clip-rule="evenodd" d="M0 3.15148C0 2.20697 1.03893 1.63114 1.83987 2.13173L7.98866 5.97473C8.74225 6.44572 8.74225 7.54322 7.98866 8.01421L1.83987 11.8572C1.03893 12.3578 0 11.782 0 10.8375V3.15148ZM2.40506 6.99447C2.40506 7.72291 3.20632 8.16701 3.82404 7.78094V7.78094C4.40524 7.41769 4.40524 6.57125 3.82404 6.208V6.208C3.20632 5.82193 2.40506 6.26603 2.40506 6.99447V6.99447Z" fill="white" fill-opacity="0.4"/>
</svg>
