<svg width="25" height="18" viewBox="0 0 25 18" fill="none" xmlns="http://www.w3.org/2000/svg">
<path opacity="0.4" d="M20.9331 17.075C20.4888 17.1534 20.0322 17.1236 19.6019 16.988C19.1716 16.8524 18.7803 16.6151 18.4612 16.2962L14.2402 11.5049H16.4364C17.1975 11.5057 17.9495 11.3396 18.6395 11.0184C19.3294 10.6972 19.9406 10.2286 20.4299 9.64566C20.9192 9.06272 21.2747 8.37959 21.4714 7.64439C21.6682 6.90918 21.7013 6.13979 21.5686 5.39038L23.2085 13.8273C23.3367 14.5597 23.1691 15.3129 22.7425 15.9218C22.3159 16.5307 21.6651 16.9454 20.9331 17.075Z" fill="white"/>
<path d="M16.8385 7.4954H14.4328C14.2201 7.4954 14.0162 7.41091 13.8658 7.26053C13.7154 7.11014 13.6309 6.90618 13.6309 6.6935C13.6309 6.48083 13.7154 6.27686 13.8658 6.12648C14.0162 5.97609 14.2201 5.8916 14.4328 5.8916H16.8385C17.0512 5.8916 17.2552 5.97609 17.4055 6.12648C17.5559 6.27686 17.6404 6.48083 17.6404 6.6935C17.6404 6.90618 17.5559 7.11014 17.4055 7.26053C17.2552 7.41091 17.0512 7.4954 16.8385 7.4954ZM9.62144 5.8916H8.81954V5.08971C8.81954 4.87703 8.73506 4.67306 8.58467 4.52268C8.43429 4.37229 8.23032 4.28781 8.01764 4.28781C7.80497 4.28781 7.601 4.37229 7.45062 4.52268C7.30023 4.67306 7.21575 4.87703 7.21575 5.08971V5.8916H6.41385C6.20117 5.8916 5.99721 5.97609 5.84682 6.12648C5.69644 6.27686 5.61195 6.48083 5.61195 6.6935C5.61195 6.90618 5.69644 7.11014 5.84682 7.26053C5.99721 7.41091 6.20117 7.4954 6.41385 7.4954H7.21575V8.2973C7.21575 8.50997 7.30023 8.71394 7.45062 8.86433C7.601 9.01471 7.80497 9.0992 8.01764 9.0992C8.23032 9.0992 8.43429 9.01471 8.58467 8.86433C8.73506 8.71394 8.81954 8.50997 8.81954 8.2973V7.4954H9.62144C9.83412 7.4954 10.0381 7.41091 10.1885 7.26053C10.3389 7.11014 10.4233 6.90618 10.4233 6.6935C10.4233 6.48083 10.3389 6.27686 10.1885 6.12648C10.0381 5.97609 9.83412 5.8916 9.62144 5.8916ZM23.4021 16.3814C23.0998 16.813 22.7068 17.1732 22.2505 17.4366C21.7942 17.7 21.2858 17.8604 20.7609 17.9063C20.2361 17.9523 19.7075 17.8827 19.2124 17.7026C18.7173 17.5224 18.2676 17.2361 17.895 16.8636C17.883 16.8515 17.871 16.8395 17.8599 16.8265L13.8795 12.3068H10.1707L6.19433 16.8265L6.15924 16.8636C5.48184 17.5395 4.56416 17.9194 3.60721 17.9201C3.0804 17.9199 2.56002 17.8043 2.08263 17.5816C1.60524 17.3588 1.18241 17.0342 0.843853 16.6306C0.505294 16.227 0.259213 15.7541 0.122898 15.2453C-0.0134173 14.7364 -0.0366614 14.2039 0.0547984 13.685C0.0543156 13.6804 0.0543156 13.6757 0.0547984 13.671L1.69568 5.24207C1.93989 3.85185 2.66624 2.59216 3.74709 1.68436C4.82795 0.77656 6.19416 0.278721 7.60567 0.27832H16.4376C17.8448 0.280565 19.2068 0.775558 20.2872 1.67736C21.3675 2.57915 22.0979 3.83081 22.3516 5.215C22.3516 5.22102 22.3516 5.22703 22.3516 5.23305L23.9924 13.67C23.9929 13.6747 23.9929 13.6794 23.9924 13.684C24.0774 14.1504 24.0689 14.6289 23.9676 15.0919C23.8662 15.5549 23.674 15.9932 23.4021 16.3814ZM16.4376 10.703C17.6073 10.703 18.7291 10.2383 19.5562 9.4112C20.3833 8.58409 20.848 7.46227 20.848 6.29255C20.848 5.12283 20.3833 4.00102 19.5562 3.1739C18.7291 2.34679 17.6073 1.88212 16.4376 1.88212H7.60567C6.57017 1.88304 5.56817 2.24912 4.77594 2.91594C3.98372 3.58275 3.45203 4.50759 3.27442 5.52774V5.54077L1.63253 13.9697C1.55996 14.3876 1.62179 14.8177 1.80913 15.1983C1.99647 15.5788 2.29967 15.8901 2.67511 16.0874C3.05056 16.2847 3.47891 16.3578 3.89856 16.2963C4.31821 16.2348 4.70753 16.0417 5.01053 15.7449L9.21247 10.9746C9.28771 10.8893 9.38025 10.8209 9.48394 10.7741C9.58764 10.7272 9.70011 10.703 9.81389 10.703H16.4376ZM22.4217 13.9697L21.5457 9.45905C21.0068 10.3291 20.2549 11.0473 19.3611 11.5456C18.4672 12.0439 17.461 12.3059 16.4376 12.3068H16.0166L19.0437 15.7459C19.272 15.9679 19.5496 16.1326 19.8538 16.2266C20.1581 16.3205 20.4802 16.3409 20.7939 16.2862C21.3164 16.194 21.7811 15.8984 22.086 15.4641C22.3909 15.0299 22.5113 14.4925 22.4207 13.9697H22.4217Z" fill="white"/>
</svg>
