<svg width="40" height="33" viewBox="0 0 40 33" fill="none" xmlns="http://www.w3.org/2000/svg">
<path d="M38.2676 0.988159H2.42024C1.5668 0.988159 0.875 1.67996 0.875 2.5334V19.7908V21.314V30.5226C0.875 31.3759 1.5668 32.0678 2.42024 32.0678H38.2677C39.1211 32.0678 39.813 31.376 39.813 30.5226V21.314V19.7908V2.5334C39.8129 1.67996 39.1209 0.988159 38.2676 0.988159ZM8.46277 22.0049H5.40261V24.0674H8.14444V24.713H5.40261V27.228H4.73241V21.3594H8.46291L8.46277 22.0049ZM14.2481 24.8134C14.2481 26.3393 13.3259 27.2618 11.7915 27.2618C10.2488 27.2618 9.31836 26.3393 9.31836 24.8134V21.3594H9.9891V24.8134C9.9891 25.9536 10.6762 26.6162 11.7915 26.6162C12.9067 26.6162 13.5774 25.9536 13.5774 24.8134V21.3594H14.2481V24.8134ZM19.1365 27.228H15.8917V21.3594H16.5625V26.5914H19.1365V27.228ZM23.4713 27.228H20.2266V21.3594H20.897V26.5914H23.4712V27.228H23.4713ZM29.6755 27.228H28.183V24.9478H25.7521V27.228H24.2594V21.3594H25.7521V23.774H28.183V21.3594H29.6755V27.228ZM33.3148 27.228H30.8497V23.8474H32.3421V26.038H33.4069C34.3207 26.038 34.9748 25.3332 34.9748 24.3023C34.9748 23.2621 34.2872 22.5499 33.3399 22.5499H30.8497V21.3594H33.3734C35.2179 21.3594 36.492 22.5499 36.492 24.2936C36.492 26.029 35.2009 27.228 33.3148 27.228ZM36.7225 18.2455H3.96535V4.07851H36.7225V18.2455Z" fill="#818181"/>
<path d="M15.1957 16.2872H17.7619V13.8919H19.2393V11.7924H17.7619V9.45949H15.1957V11.7924H12.894L16.1288 5.40033H13.4693L10.0322 12.0414V13.8919H15.1957V16.2872Z" fill="#818181"/>
<path d="M23.3153 13.6122L24.7616 12.0102L27.6388 16.2872H30.9515L26.6435 9.9105L30.6872 5.40033H27.4834L23.3153 10.1128V5.40033H20.5469V16.2872H23.3153V13.6122Z" fill="#818181"/>
</svg>
