<svg width="40" height="32" viewBox="0 0 40 32" fill="none" xmlns="http://www.w3.org/2000/svg">
<path d="M0.612305 4.98816C0.612305 3.05516 2.17931 1.48816 4.1123 1.48816H35.1688C37.1018 1.48816 38.6688 3.05516 38.6688 4.98816V28.0036C38.6688 29.9366 37.1018 31.5036 35.1688 31.5036H4.1123C2.17931 31.5036 0.612305 29.9366 0.612305 28.0036V4.98816Z" stroke="#818181"/>
<path d="M11.5174 21.4387C10.92 21.4387 10.3974 21.35 9.94938 21.1727C9.50138 20.986 9.15605 20.7713 8.91338 20.5287C8.67072 20.2767 8.54938 20.0527 8.54938 19.8567C8.54938 19.7633 8.57272 19.67 8.61938 19.5767C8.67538 19.474 8.74072 19.39 8.81538 19.3247C8.89938 19.25 8.98338 19.2127 9.06738 19.2127C9.17938 19.2127 9.28672 19.2687 9.38938 19.3807C9.50138 19.4927 9.63672 19.628 9.79538 19.7867C9.96338 19.936 10.178 20.0667 10.4394 20.1787C10.7007 20.2907 11.0414 20.3467 11.4614 20.3467C11.8534 20.3467 12.194 20.286 12.4834 20.1647C12.7727 20.034 12.9967 19.8427 13.1554 19.5907C13.3234 19.3293 13.4074 19.0027 13.4074 18.6107C13.4074 18.2093 13.3234 17.8827 13.1554 17.6307C12.9874 17.3787 12.7634 17.1687 12.4834 17.0007C12.2127 16.8327 11.914 16.6833 11.5874 16.5527C11.27 16.422 10.9434 16.2913 10.6074 16.1607C10.2807 16.0207 9.98205 15.8527 9.71138 15.6567C9.44072 15.4513 9.22138 15.19 9.05338 14.8727C8.88538 14.5553 8.80138 14.154 8.80138 13.6687C8.80138 13.1553 8.89472 12.7307 9.08138 12.3947C9.26805 12.0587 9.51538 11.7927 9.82338 11.5967C10.1314 11.4007 10.4627 11.2653 10.8174 11.1907C11.1814 11.1067 11.536 11.0647 11.8814 11.0647C12.1334 11.0647 12.3994 11.0833 12.6794 11.1207C12.9594 11.158 13.2254 11.214 13.4774 11.2887C13.7294 11.3633 13.9347 11.4613 14.0934 11.5827C14.252 11.6947 14.3314 11.83 14.3314 11.9887C14.3314 12.0633 14.3127 12.152 14.2754 12.2547C14.238 12.348 14.182 12.4367 14.1074 12.5207C14.0327 12.5953 13.9394 12.6327 13.8274 12.6327C13.7247 12.6327 13.5987 12.5907 13.4494 12.5067C13.3 12.4133 13.0994 12.3247 12.8474 12.2407C12.6047 12.1473 12.2827 12.1007 11.8814 12.1007C11.5454 12.1007 11.228 12.1473 10.9294 12.2407C10.64 12.334 10.4067 12.488 10.2294 12.7027C10.0614 12.9173 9.97738 13.202 9.97738 13.5567C9.97738 13.8927 10.0614 14.168 10.2294 14.3827C10.3974 14.5973 10.6167 14.7747 10.8874 14.9147C11.158 15.0547 11.4567 15.1853 11.7834 15.3067C12.11 15.4187 12.4367 15.554 12.7634 15.7127C13.09 15.862 13.3887 16.0487 13.6594 16.2727C13.9394 16.4967 14.1634 16.7907 14.3314 17.1547C14.4994 17.5093 14.5834 17.9573 14.5834 18.4987C14.5834 19.1707 14.448 19.726 14.1774 20.1647C13.916 20.594 13.5567 20.916 13.0994 21.1307C12.642 21.336 12.1147 21.4387 11.5174 21.4387ZM16.6407 21.3267C16.4821 21.3267 16.3514 21.2893 16.2487 21.2147C16.1554 21.1307 16.1087 21.0327 16.1087 20.9207V11.4987C16.1087 11.3867 16.1554 11.2933 16.2487 11.2187C16.3514 11.1347 16.4821 11.0927 16.6407 11.0927H19.1187C19.6881 11.0927 20.2014 11.1953 20.6587 11.4007C21.1161 11.5967 21.4754 11.9187 21.7367 12.3667C22.0074 12.8053 22.1427 13.398 22.1427 14.1447V18.2747C22.1427 19.0213 22.0074 19.6187 21.7367 20.0667C21.4754 20.5053 21.1161 20.8273 20.6587 21.0327C20.2014 21.2287 19.6881 21.3267 19.1187 21.3267H16.6407ZM17.2847 20.2627H19.1187C19.6974 20.2627 20.1501 20.104 20.4767 19.7867C20.8034 19.46 20.9667 18.956 20.9667 18.2747V14.1447C20.9667 13.4633 20.8034 12.964 20.4767 12.6467C20.1501 12.32 19.6974 12.1567 19.1187 12.1567H17.2847V20.2627ZM24.6264 21.3267C24.4864 21.3267 24.3511 21.294 24.2204 21.2287C24.0991 21.154 24.0384 21.0467 24.0384 20.9067V11.4987C24.0384 11.3587 24.0991 11.256 24.2204 11.1907C24.3511 11.1253 24.4864 11.0927 24.6264 11.0927C24.7757 11.0927 24.9111 11.1253 25.0324 11.1907C25.1537 11.256 25.2144 11.3587 25.2144 11.4987V15.5307H29.0084V11.4987C29.0084 11.3587 29.0691 11.256 29.1904 11.1907C29.3211 11.1253 29.4564 11.0927 29.5964 11.0927C29.7457 11.0927 29.8811 11.1253 30.0024 11.1907C30.1237 11.256 30.1844 11.3587 30.1844 11.4987V20.9067C30.1844 21.0467 30.1237 21.154 30.0024 21.2287C29.8811 21.294 29.7457 21.3267 29.5964 21.3267C29.4564 21.3267 29.3211 21.294 29.1904 21.2287C29.0691 21.154 29.0084 21.0467 29.0084 20.9067V16.5107H25.2144V20.9067C25.2144 21.0467 25.1537 21.154 25.0324 21.2287C24.9111 21.294 24.7757 21.3267 24.6264 21.3267Z" fill="#818181"/>
</svg>
