<svg width="10" height="11" viewBox="0 0 10 11" fill="none" xmlns="http://www.w3.org/2000/svg">
<path opacity="0.4" d="M9.15334 4.11869C9.15334 4.15609 8.86022 7.86351 8.69279 9.4238C8.58795 10.3813 7.97067 10.9621 7.04475 10.9786C6.33333 10.9946 5.63689 11 4.95167 11C4.22421 11 3.51278 10.9946 2.82222 10.9786C1.92733 10.9572 1.30951 10.3648 1.21002 9.4238C1.03778 7.85801 0.750005 4.15609 0.744656 4.11869C0.739307 4.00594 0.775681 3.8987 0.849497 3.8118C0.922244 3.7315 1.02709 3.68311 1.13728 3.68311H8.76607C8.87573 3.68311 8.97522 3.7315 9.05385 3.8118C9.12713 3.8987 9.16404 4.00594 9.15334 4.11869Z" fill="white"/>
<path d="M9.9 2.18727C9.9 1.96123 9.72188 1.78414 9.50791 1.78414H7.90427C7.57798 1.78414 7.29448 1.55205 7.22174 1.22481L7.13187 0.823871C7.00617 0.339338 6.57236 0 6.0856 0H3.81493C3.32282 0 2.89329 0.339338 2.76278 0.85027L2.6788 1.22536C2.60552 1.55205 2.32202 1.78414 1.99626 1.78414H0.392619C0.178123 1.78414 0 1.96123 0 2.18727V2.39627C0 2.61681 0.178123 2.7994 0.392619 2.7994H9.50791C9.72188 2.7994 9.9 2.61681 9.9 2.39627V2.18727Z" fill="white"/>
</svg>
