<svg width="68" height="54" viewBox="0 0 68 54" fill="none" xmlns="http://www.w3.org/2000/svg">
<path d="M43.3283 23.4778C45.9575 25.1046 45.9575 28.8954 43.3283 30.5222L6.42217 53.3581C3.38058 55.2402 -0.489394 52.7206 0.0509279 49.2102L3.37318 27.6257C3.43701 27.211 3.43701 26.789 3.37318 26.3743L0.0509298 4.7898C-0.489391 1.27936 3.38058 -1.24015 6.42218 0.641855L43.3283 23.4778Z" fill="url(#paint0_linear_66_273)"/>
<g filter="url(#filter0_bi_66_273)">
<path d="M65.5282 23.4778C68.1574 25.1046 68.1574 28.8954 65.5282 30.5222L28.6221 53.3581C25.5805 55.2402 21.7106 52.7206 22.2509 49.2102L25.5731 27.6257C25.637 27.211 25.637 26.789 25.5731 26.3743L22.2509 4.7898C21.7106 1.27936 25.5805 -1.24015 28.6221 0.641855L65.5282 23.4778Z" fill="#BCE4F1" fill-opacity="0.5"/>
</g>
<defs>
<filter id="filter0_bi_66_273" x="18.2" y="-4" width="53.3002" height="62" filterUnits="userSpaceOnUse" color-interpolation-filters="sRGB">
<feFlood flood-opacity="0" result="BackgroundImageFix"/>
<feGaussianBlur in="BackgroundImageFix" stdDeviation="2"/>
<feComposite in2="SourceAlpha" operator="in" result="effect1_backgroundBlur_66_273"/>
<feBlend mode="normal" in="SourceGraphic" in2="effect1_backgroundBlur_66_273" result="shape"/>
<feColorMatrix in="SourceAlpha" type="matrix" values="0 0 0 0 0 0 0 0 0 0 0 0 0 0 0 0 0 0 127 0" result="hardAlpha"/>
<feOffset dx="0.2" dy="0.1"/>
<feGaussianBlur stdDeviation="0.5"/>
<feComposite in2="hardAlpha" operator="arithmetic" k2="-1" k3="1"/>
<feColorMatrix type="matrix" values="0 0 0 0 1 0 0 0 0 1 0 0 0 0 1 0 0 0 0.6 0"/>
<feBlend mode="normal" in2="shape" result="effect2_innerShadow_66_273"/>
</filter>
<linearGradient id="paint0_linear_66_273" x1="45.3002" y1="0" x2="42.6992" y2="54.7518" gradientUnits="userSpaceOnUse">
<stop stop-color="#5A0DFF"/>
<stop offset="0.395" stop-color="#FF29B8"/>
<stop offset="1" stop-color="#FF581C"/>
</linearGradient>
</defs>
</svg>
