<svg width="14" height="15" viewBox="0 0 14 15" fill="none" xmlns="http://www.w3.org/2000/svg">
<path d="M14 7.88455C14 11.7557 10.8661 14.8924 7 14.8924C3.1339 14.8924 0 11.7557 0 7.88455C0 4.01482 3.1339 0.876709 7 0.876709C10.8661 0.876709 14 4.01482 14 7.88455Z" fill="url(#paint0_linear_2222_3804)"/>
<path d="M9.50102 10.5577C9.40932 10.5577 9.31692 10.5339 9.23222 10.4841L6.48402 8.84288C6.32582 8.74758 6.22852 8.57589 6.22852 8.39088V4.85402C6.22852 4.56389 6.46372 4.32843 6.75352 4.32843C7.04332 4.32843 7.27852 4.56389 7.27852 4.85402V8.09234L9.77052 9.58011C10.019 9.72938 10.1009 10.0517 9.95252 10.3012C9.85382 10.4659 9.67952 10.5577 9.50102 10.5577Z" fill="white"/>
<defs>
<linearGradient id="paint0_linear_2222_3804" x1="0" y1="0.876709" x2="14.2044" y2="1.44214" gradientUnits="userSpaceOnUse">
<stop stop-color="#5A0DFF"/>
<stop offset="0.395" stop-color="#FF29B8"/>
<stop offset="1" stop-color="#FF581C"/>
</linearGradient>
</defs>
</svg>
