<svg width="40" height="32" viewBox="0 0 40 32" fill="none" xmlns="http://www.w3.org/2000/svg">
<path d="M1.06836 4.98816C1.06836 3.05516 2.63536 1.48816 4.56836 1.48816H35.6249C37.5579 1.48816 39.1249 3.05516 39.1249 4.98816V28.0036C39.1249 29.9366 37.5579 31.5036 35.6249 31.5036H4.56836C2.63536 31.5036 1.06836 29.9366 1.06836 28.0036V4.98816Z" stroke="#818181"/>
<path d="M13.2342 21.3267C13.1409 21.3267 13.0335 21.308 12.9122 21.2707C12.8002 21.224 12.7069 21.1633 12.6322 21.0887C12.5669 21.014 12.5342 20.93 12.5342 20.8367C12.5342 20.7993 12.5389 20.762 12.5482 20.7247L15.4182 11.4147C15.4555 11.2747 15.5442 11.172 15.6842 11.1067C15.8242 11.0413 15.9735 11.0087 16.1322 11.0087C16.3002 11.0087 16.4542 11.046 16.5942 11.1207C16.7342 11.186 16.8229 11.284 16.8602 11.4147L19.7162 20.7247C19.7349 20.762 19.7442 20.7947 19.7442 20.8227C19.7442 20.916 19.7022 21 19.6182 21.0747C19.5435 21.1493 19.4502 21.21 19.3382 21.2567C19.2262 21.3033 19.1189 21.3267 19.0162 21.3267C18.9135 21.3267 18.8249 21.308 18.7502 21.2707C18.6755 21.224 18.6242 21.154 18.5962 21.0607L17.9662 18.9747H14.2842L13.6822 21.0607C13.6542 21.154 13.5982 21.224 13.5142 21.2707C13.4395 21.308 13.3462 21.3267 13.2342 21.3267ZM14.5642 18.0087H17.7002L16.1322 12.7447L14.5642 18.0087ZM21.4921 21.3267C21.3335 21.3267 21.2028 21.2893 21.1001 21.2147C21.0068 21.1307 20.9601 21.0327 20.9601 20.9207V11.4987C20.9601 11.3867 21.0068 11.2933 21.1001 11.2187C21.2028 11.1347 21.3335 11.0927 21.4921 11.0927H23.9701C24.5395 11.0927 25.0528 11.1953 25.5101 11.4007C25.9675 11.5967 26.3268 11.9187 26.5881 12.3667C26.8588 12.8053 26.9941 13.398 26.9941 14.1447V18.2747C26.9941 19.0213 26.8588 19.6187 26.5881 20.0667C26.3268 20.5053 25.9675 20.8273 25.5101 21.0327C25.0528 21.2287 24.5395 21.3267 23.9701 21.3267H21.4921ZM22.1361 20.2627H23.9701C24.5488 20.2627 25.0015 20.104 25.3281 19.7867C25.6548 19.46 25.8181 18.956 25.8181 18.2747V14.1447C25.8181 13.4633 25.6548 12.964 25.3281 12.6467C25.0015 12.32 24.5488 12.1567 23.9701 12.1567H22.1361V20.2627Z" fill="#818181"/>
</svg>
