<svg width="14" height="14" viewBox="0 0 14 14" fill="none" xmlns="http://www.w3.org/2000/svg">
<path opacity="0.2" fill-rule="evenodd" clip-rule="evenodd" d="M7 0C1.83149 0 0 1.83149 0 7C0 12.1678 1.83149 14 7 14C12.1685 14 14 12.1678 14 7C14 1.83149 12.1685 0 7 0Z" fill="white"/>
<path d="M8.53938 9C8.69641 9 8.84914 8.93354 8.93501 8.81431C9.06505 8.6342 8.9939 8.40081 8.77553 8.29274L6.92007 7.37747V5.38052C6.92007 5.17047 6.71397 5 6.46003 5C6.20609 5 6 5.17047 6 5.38052V7.59361C6 7.72704 6.08526 7.85185 6.2245 7.92034L8.30446 8.94673C8.37807 8.98275 8.45964 9 8.53938 9Z" fill="white"/>
</svg>
