<svg width="60" height="45" viewBox="0 0 60 45" fill="none" xmlns="http://www.w3.org/2000/svg">
<path d="M46.3155 16.7796L46.1998 17.375L46.8063 17.375L54.375 17.375C57.2007 17.375 59.5 19.6743 59.5 22.5L59.5 39.375C59.5 42.2007 57.2007 44.5 54.375 44.5L37.5 44.5C34.6743 44.5 32.375 42.2007 32.375 39.375L32.375 21.3062C32.375 19.4845 32.6216 17.672 33.1093 15.9196L33.1098 15.9176C33.1248 15.863 33.144 15.8076 33.1672 15.7523C33.1672 15.7522 33.1673 15.7521 33.1673 15.752L38.6254 2.80533L38.6341 2.78465L38.641 2.76327C39.0685 1.42498 40.326 0.500006 41.738 0.500005L47.8125 0.500005C48.2236 0.500005 48.6121 0.683274 48.8732 1.00007C49.1344 1.31707 49.2405 1.73396 49.1619 2.13744L49.1619 2.13757L46.3155 16.7796Z" stroke="url(#paint0_linear_519_1894)"/>
<path d="M14.4435 16.7796L14.3277 17.375L14.9343 17.375L22.5039 17.375C25.3296 17.375 27.6289 19.6743 27.6289 22.5L27.6289 39.375C27.6289 42.2007 25.3296 44.5 22.5039 44.5L5.62891 44.5C2.80324 44.5 0.50391 42.2007 0.50391 39.375L0.503908 21.3062C0.503908 19.487 0.75031 17.6751 1.2377 15.9214C1.25527 15.8601 1.27446 15.804 1.29616 15.7522C1.2962 15.7522 1.29623 15.7521 1.29627 15.752L6.75432 2.80626L6.76311 2.78541L6.76998 2.76385C7.19673 1.42486 8.45313 0.500006 9.86597 0.500005L15.9414 0.500005C16.3529 0.500005 16.7419 0.683534 17.0017 0.999578L17.0025 1.00055C17.2643 1.31739 17.3701 1.73374 17.291 2.13665L17.2908 2.13754L14.4435 16.7796Z" stroke="url(#paint1_linear_519_1894)"/>
<defs>
<linearGradient id="paint0_linear_519_1894" x1="60" y1="45" x2="31.4368" y2="44.2886" gradientUnits="userSpaceOnUse">
<stop stop-color="#5A0DFF"/>
<stop offset="0.395" stop-color="#FF29B8"/>
<stop offset="1" stop-color="#FF581C"/>
</linearGradient>
<linearGradient id="paint1_linear_519_1894" x1="28.1289" y1="45" x2="-0.434295" y2="44.2886" gradientUnits="userSpaceOnUse">
<stop stop-color="#5A0DFF"/>
<stop offset="0.395" stop-color="#FF29B8"/>
<stop offset="1" stop-color="#FF581C"/>
</linearGradient>
</defs>
</svg>
