<svg width="14" height="14" viewBox="0 0 14 14" fill="none" xmlns="http://www.w3.org/2000/svg">
<path d="M3.88889 0.414201H14V2.07101H3.88889V0.414201ZM1.16667 2.48521C0.522332 2.48521 0 1.92888 0 1.2426C0 0.55633 0.522332 0 1.16667 0C1.811 0 2.33333 0.55633 2.33333 1.2426C2.33333 1.92888 1.811 2.48521 1.16667 2.48521ZM1.16667 8.28402C0.522332 8.28402 0 7.72767 0 7.04142C0 6.35517 0.522332 5.79882 1.16667 5.79882C1.811 5.79882 2.33333 6.35517 2.33333 7.04142C2.33333 7.72767 1.811 8.28402 1.16667 8.28402ZM1.16667 14C0.522332 14 0 13.4436 0 12.7574C0 12.0711 0.522332 11.5148 1.16667 11.5148C1.811 11.5148 2.33333 12.0711 2.33333 12.7574C2.33333 13.4436 1.811 14 1.16667 14ZM3.88889 6.21302H14V7.86982H3.88889V6.21302ZM3.88889 12.0118H14V13.6686H3.88889V12.0118Z" fill="#999999"/>
</svg>
