<svg width="40" height="32" viewBox="0 0 40 32" fill="none" xmlns="http://www.w3.org/2000/svg">
<path d="M0.524414 4.98816C0.524414 3.05516 2.09142 1.48816 4.02441 1.48816H35.0809C37.0139 1.48816 38.5809 3.05516 38.5809 4.98816V28.0036C38.5809 29.9366 37.0139 31.5036 35.0809 31.5036H4.02441C2.09142 31.5036 0.524414 29.9366 0.524414 28.0036V4.98816Z" stroke="#818181"/>
<path d="M16.568 21.4107C16.0266 21.4107 15.5273 21.3127 15.07 21.1167C14.6126 20.9113 14.2486 20.5847 13.978 20.1367C13.7073 19.6887 13.572 19.096 13.572 18.3587V14.1447C13.572 13.4073 13.7073 12.8147 13.978 12.3667C14.258 11.9187 14.6266 11.5967 15.084 11.4007C15.5413 11.1953 16.0406 11.0927 16.582 11.0927C17.2166 11.0927 17.758 11.2 18.206 11.4147C18.654 11.6293 18.9993 11.9233 19.242 12.2967C19.4846 12.6607 19.606 13.0713 19.606 13.5287C19.606 13.79 19.5546 13.9627 19.452 14.0467C19.3586 14.1307 19.214 14.1727 19.018 14.1727C18.8313 14.1727 18.6866 14.1353 18.584 14.0607C18.4906 13.986 18.4393 13.888 18.43 13.7667C18.4206 13.6267 18.3926 13.468 18.346 13.2907C18.3086 13.104 18.2246 12.9267 18.094 12.7587C17.9726 12.5813 17.7906 12.4367 17.548 12.3247C17.3146 12.2127 17.002 12.1567 16.61 12.1567C16.0126 12.1567 15.5506 12.32 15.224 12.6467C14.9066 12.964 14.748 13.4633 14.748 14.1447V18.3587C14.748 19.04 14.9113 19.544 15.238 19.8707C15.5646 20.188 16.036 20.3467 16.652 20.3467C17.044 20.3467 17.352 20.2907 17.576 20.1787C17.8093 20.0667 17.982 19.9267 18.094 19.7587C18.206 19.5907 18.2853 19.4133 18.332 19.2267C18.3786 19.0307 18.4113 18.8487 18.43 18.6807C18.4393 18.5407 18.4953 18.438 18.598 18.3727C18.7006 18.3073 18.8406 18.2747 19.018 18.2747C19.214 18.2747 19.3586 18.3213 19.452 18.4147C19.5546 18.4987 19.606 18.6713 19.606 18.9327C19.606 19.39 19.48 19.81 19.228 20.1927C18.9853 20.566 18.6353 20.8647 18.178 21.0887C17.73 21.3033 17.1933 21.4107 16.568 21.4107ZM24.0191 21.4107C23.4778 21.4107 22.9785 21.3127 22.5211 21.1167C22.0638 20.9113 21.6998 20.5847 21.4291 20.1367C21.1585 19.6887 21.0231 19.096 21.0231 18.3587V14.1447C21.0231 13.4073 21.1585 12.8147 21.4291 12.3667C21.7091 11.9187 22.0778 11.5967 22.5351 11.4007C22.9925 11.1953 23.4918 11.0927 24.0331 11.0927C24.6678 11.0927 25.2091 11.2 25.6571 11.4147C26.1051 11.6293 26.4505 11.9233 26.6931 12.2967C26.9358 12.6607 27.0571 13.0713 27.0571 13.5287C27.0571 13.79 27.0058 13.9627 26.9031 14.0467C26.8098 14.1307 26.6651 14.1727 26.4691 14.1727C26.2825 14.1727 26.1378 14.1353 26.0351 14.0607C25.9418 13.986 25.8905 13.888 25.8811 13.7667C25.8718 13.6267 25.8438 13.468 25.7971 13.2907C25.7598 13.104 25.6758 12.9267 25.5451 12.7587C25.4238 12.5813 25.2418 12.4367 24.9991 12.3247C24.7658 12.2127 24.4531 12.1567 24.0611 12.1567C23.4638 12.1567 23.0018 12.32 22.6751 12.6467C22.3578 12.964 22.1991 13.4633 22.1991 14.1447V18.3587C22.1991 19.04 22.3625 19.544 22.6891 19.8707C23.0158 20.188 23.4871 20.3467 24.1031 20.3467C24.4951 20.3467 24.8031 20.2907 25.0271 20.1787C25.2605 20.0667 25.4331 19.9267 25.5451 19.7587C25.6571 19.5907 25.7365 19.4133 25.7831 19.2267C25.8298 19.0307 25.8625 18.8487 25.8811 18.6807C25.8905 18.5407 25.9465 18.438 26.0491 18.3727C26.1518 18.3073 26.2918 18.2747 26.4691 18.2747C26.6651 18.2747 26.8098 18.3213 26.9031 18.4147C27.0058 18.4987 27.0571 18.6713 27.0571 18.9327C27.0571 19.39 26.9311 19.81 26.6791 20.1927C26.4365 20.566 26.0865 20.8647 25.6291 21.0887C25.1811 21.3033 24.6445 21.4107 24.0191 21.4107Z" fill="#818181"/>
</svg>
