<svg width="16" height="16" viewBox="0 0 16 16" fill="none" xmlns="http://www.w3.org/2000/svg">
<path d="M8.70148 0.409546C9.55321 0.410954 9.98482 0.415464 10.3578 0.426567L10.5047 0.431365C10.6744 0.437397 10.8418 0.444965 11.0436 0.454425C11.8489 0.491638 12.3983 0.619034 12.8808 0.806347C13.3796 0.998708 13.8009 1.25855 14.2216 1.67922C14.6416 2.09988 14.9015 2.52244 15.0945 3.02005C15.2811 3.50189 15.4086 4.05185 15.4464 4.85723C15.4554 5.05905 15.4627 5.22646 15.4686 5.39617L15.4734 5.54306C15.4845 5.91597 15.4895 6.34765 15.4911 7.19941L15.4917 7.7637C15.4918 7.83264 15.4918 7.90378 15.4918 7.97719L15.4917 8.19069L15.4913 8.75505C15.4898 9.60678 15.4854 10.0385 15.4742 10.4114L15.4694 10.5583C15.4634 10.728 15.4559 10.8954 15.4464 11.0972C15.4092 11.9026 15.2811 12.4519 15.0945 12.9344C14.9021 13.4333 14.6416 13.8546 14.2216 14.2752C13.8009 14.6953 13.3777 14.9551 12.8808 15.1481C12.3983 15.3348 11.8489 15.4621 11.0436 15.5C10.8418 15.509 10.6744 15.5163 10.5047 15.5222L10.3578 15.527C9.98482 15.5381 9.55321 15.5431 8.70148 15.5448L8.13712 15.5454C8.06818 15.5454 7.99704 15.5454 7.92363 15.5454H7.71013L7.14577 15.5449C6.29404 15.5435 5.86237 15.539 5.48945 15.5278L5.34256 15.5231C5.17285 15.517 5.00544 15.5094 4.80363 15.5C3.99824 15.4628 3.44955 15.3348 2.96645 15.1481C2.46821 14.9558 2.04628 14.6953 1.62562 14.2752C1.20496 13.8546 0.945746 13.4314 0.752757 12.9344C0.565444 12.4519 0.438677 11.9026 0.400836 11.0972C0.391845 10.8954 0.384512 10.728 0.378571 10.5583L0.37381 10.4114C0.362738 10.0385 0.35769 9.60678 0.356056 8.75505L0.355957 7.19941C0.357365 6.34765 0.361868 5.91597 0.37297 5.54306L0.377776 5.39617C0.383808 5.22646 0.391376 5.05905 0.400836 4.85723C0.438042 4.05121 0.565444 3.50252 0.752757 3.02005C0.94511 2.52181 1.20496 2.09988 1.62562 1.67922C2.04628 1.25855 2.46884 0.999336 2.96645 0.806347C3.44892 0.619034 3.99762 0.492266 4.80363 0.454425C5.00544 0.445442 5.17285 0.438108 5.34256 0.432167L5.48945 0.427407C5.86237 0.416327 6.29404 0.411279 7.14577 0.409644L8.70148 0.409546ZM7.92363 4.19312C5.8326 4.19312 4.13952 5.88804 4.13952 7.97719C4.13952 10.0682 5.83444 11.7613 7.92363 11.7613C10.0146 11.7613 11.7077 10.0664 11.7077 7.97719C11.7077 5.8862 10.0127 4.19312 7.92363 4.19312ZM7.92363 5.70676C9.1776 5.70676 10.1941 6.72292 10.1941 7.97719C10.1941 9.23117 9.1779 10.2477 7.92363 10.2477C6.66965 10.2477 5.65316 9.23155 5.65316 7.97719C5.65316 6.72322 6.66927 5.70676 7.92363 5.70676ZM11.8969 3.05789C11.3752 3.05789 10.9509 3.48164 10.9509 4.00327C10.9509 4.52491 11.3746 4.94931 11.8969 4.94931C12.4185 4.94931 12.8429 4.52557 12.8429 4.00327C12.8429 3.48164 12.4178 3.05724 11.8969 3.05789Z" fill="#E2E2E2"/>
</svg>
