<svg width="16" height="16" viewBox="0 0 16 16" fill="none" xmlns="http://www.w3.org/2000/svg">
<path d="M9.40931 0.481003C5.66616 -0.0349299 2.11618 2.2902 1.0922 5.92847C0.0682214 9.56676 1.88408 13.403 5.34651 14.9164C5.30106 14.3351 5.34246 13.7502 5.46933 13.1812C5.60904 12.5465 6.45018 9.04693 6.45018 9.04693C6.28257 8.67164 6.19874 8.26426 6.20454 7.85324C6.20454 6.72941 6.853 5.89093 7.65979 5.89093C7.95301 5.88656 8.23368 6.00999 8.42868 6.22911C8.62369 6.44822 8.71382 6.74137 8.67553 7.0322C8.67553 7.71347 8.23784 8.74414 8.01022 9.71071C7.91836 10.0704 8.00288 10.4524 8.23792 10.7397C8.47295 11.027 8.83058 11.1854 9.20122 11.1665C10.6372 11.1665 11.6006 9.32641 11.6006 7.1545C11.6006 5.48915 10.4975 4.24306 8.46538 4.24306C7.48294 4.20508 6.52787 4.57158 5.82288 5.2571C5.11788 5.94263 4.72459 6.88728 4.73472 7.87073C4.71308 8.41047 4.88715 8.93984 5.22485 9.36137C5.35476 9.45801 5.40488 9.62912 5.34768 9.78063C5.31275 9.92034 5.22485 10.2523 5.18992 10.3746C5.1752 10.4582 5.12168 10.5299 5.04568 10.5678C4.96968 10.6057 4.88022 10.6053 4.80457 10.5667C3.7568 10.1474 3.26317 8.99448 3.26317 7.67858C3.26317 5.52409 5.06768 2.94456 8.67674 2.94456C11.5494 2.94456 13.4587 5.04662 13.4587 7.29421C13.4587 10.2523 11.812 12.4766 9.37761 12.4766C8.63814 12.5001 7.93795 12.1444 7.5207 11.5333C7.5207 11.5333 7.08294 13.286 6.99675 13.6179C6.82082 14.1906 6.5611 14.7341 6.22607 15.2308C6.92426 15.4426 7.65025 15.5486 8.37988 15.5453C10.3869 15.5466 12.3121 14.7495 13.7311 13.3294C15.15 11.9095 15.946 9.98323 15.9437 7.97554C15.9415 4.19581 13.1525 0.996936 9.40931 0.481003Z" fill="#E2E2E2"/>
</svg>
