<svg width="25" height="25" viewBox="0 0 25 25" fill="none" xmlns="http://www.w3.org/2000/svg">
<path opacity="0.4" d="M22.9517 10.9291C22.5678 13.8464 21.4485 17.0575 18.7891 19.7112C16.1296 22.3649 12.9243 23.4888 10.007 23.8739L1.09766 14.9622C1.48155 12.0449 2.60085 8.83385 5.26034 6.18014C7.91983 3.52643 11.1251 2.4025 14.0482 2.01746L22.9587 10.9279L22.9517 10.9291Z" fill="white"/>
<path d="M23.7108 4.37645C23.5787 3.59797 23.2078 2.87984 22.6495 2.32151C22.0912 1.76317 21.373 1.39229 20.5946 1.26022C16.8516 0.62541 9.79586 0.335179 4.60639 5.52697C-0.583091 10.7188 -0.295172 17.7722 0.339637 21.5151C0.472059 22.2944 0.843795 23.0132 1.40325 23.5716C1.9627 24.13 2.68212 24.5004 3.46165 24.6314C4.77307 24.855 6.10088 24.9687 7.43123 24.9713C11.1418 24.9713 15.7624 24.0463 19.444 20.3646C24.6347 15.1751 24.3456 8.11939 23.7108 4.37645ZM16.5868 2.75763C17.8271 2.762 19.0648 2.8703 20.287 3.08139C20.6872 3.14976 21.0563 3.34082 21.3432 3.62814C21.6301 3.91546 21.8207 4.28484 21.8885 4.68518C22.127 6.06793 22.2316 7.47047 22.2007 8.8733L16.0965 2.77035C16.2584 2.7611 16.4192 2.75879 16.5868 2.75879V2.75763ZM3.7646 22.809C3.36431 22.741 2.99506 22.5502 2.70795 22.2631C2.42084 21.9759 2.23005 21.6067 2.16197 21.2064C1.9234 19.8237 1.81885 18.4211 1.84977 17.0183L7.95272 23.1212C6.54987 23.1527 5.14727 23.0482 3.7646 22.809ZM18.1374 19.058C16.795 20.3993 14.2904 22.2644 10.3474 22.905L2.06599 14.6236C2.70658 10.6806 4.5717 8.17605 5.91301 6.83359C7.25432 5.49112 9.75886 3.62601 13.7018 2.98542L21.9844 11.268C21.3438 15.211 19.4787 17.7155 18.1374 19.058ZM16.3775 8.59348C16.5509 8.76694 16.6483 9.00213 16.6483 9.24737C16.6483 9.4926 16.5509 9.72779 16.3775 9.90125L14.7194 11.5582L15.4525 12.2913C15.5439 12.3759 15.6173 12.4781 15.6683 12.5917C15.7192 12.7053 15.7467 12.8281 15.7491 12.9526C15.7515 13.0771 15.7287 13.2008 15.6821 13.3163C15.6356 13.4318 15.5662 13.5367 15.4781 13.6247C15.39 13.7127 15.285 13.782 15.1695 13.8285C15.0539 13.875 14.9302 13.8977 14.8057 13.8952C14.6812 13.8927 14.5585 13.8651 14.4449 13.814C14.3313 13.7629 14.2292 13.6894 14.1447 13.5979L13.4128 12.866L11.9454 14.3334L12.6785 15.0664C12.77 15.1509 12.8435 15.253 12.8946 15.3666C12.9456 15.4802 12.9732 15.6029 12.9757 15.7274C12.9782 15.8519 12.9556 15.9757 12.9091 16.0912C12.8626 16.2067 12.7933 16.3117 12.7053 16.3998C12.6173 16.4879 12.5124 16.5573 12.3969 16.6039C12.2814 16.6505 12.1577 16.6732 12.0331 16.6709C11.9086 16.6685 11.7859 16.641 11.6723 16.59C11.5586 16.539 11.4565 16.4656 11.3719 16.3742L10.6377 15.64L8.97952 17.2981C8.89447 17.3876 8.79237 17.4592 8.67923 17.5086C8.56608 17.5581 8.44419 17.5844 8.32072 17.5859C8.19726 17.5875 8.07473 17.5644 7.96036 17.5178C7.84599 17.4713 7.74209 17.4024 7.65478 17.3151C7.56747 17.2278 7.49853 17.1239 7.45201 17.0095C7.40549 16.8951 7.38234 16.7726 7.38392 16.6491C7.3855 16.5257 7.41178 16.4038 7.46121 16.2906C7.51064 16.1775 7.58223 16.0754 7.67174 15.9903L9.33103 14.3334L8.59794 13.6003C8.43574 13.4247 8.34782 13.1931 8.35262 12.9541C8.35741 12.7151 8.45455 12.4872 8.62366 12.3182C8.79277 12.1493 9.02072 12.0523 9.25973 12.0477C9.49874 12.0432 9.73025 12.1313 9.90571 12.2936L10.6388 13.0267L12.105 11.5582L11.3719 10.8251C11.2095 10.6497 11.1214 10.4182 11.126 10.1792C11.1306 9.94015 11.2275 9.7122 11.3965 9.54308C11.5655 9.37397 11.7933 9.27684 12.0323 9.27204C12.2713 9.26725 12.5029 9.35516 12.6785 9.51736L13.4128 10.2516L15.0709 8.59348C15.2443 8.42048 15.4793 8.32333 15.7242 8.32333C15.9692 8.32333 16.2041 8.42048 16.3775 8.59348Z" fill="white"/>
</svg>
