<svg width="25" height="26" viewBox="0 0 25 26" fill="none" xmlns="http://www.w3.org/2000/svg">
<path fill-rule="evenodd" clip-rule="evenodd" d="M10.8692 2.98539C6.19455 2.98539 2.40506 6.77487 2.40506 11.4495C2.40506 16.124 6.19455 19.9135 10.8692 19.9135C15.5438 19.9135 19.3332 16.124 19.3332 11.4495C19.3332 6.77487 15.5438 2.98539 10.8692 2.98539ZM0 11.4495C0 5.44661 4.86627 0.580322 10.8692 0.580322C16.872 0.580322 21.7382 5.44661 21.7382 11.4495C21.7382 17.4523 16.872 22.3186 10.8692 22.3186C4.86627 22.3186 0 17.4523 0 11.4495Z" fill="white"/>
<path opacity="0.4" fill-rule="evenodd" clip-rule="evenodd" d="M17.468 16.8679L24.6465 24.0278L22.9482 25.7306L15.7695 18.5707L17.468 16.8679Z" fill="white"/>
</svg>
