<svg width="26" height="29" viewBox="0 0 26 29" fill="none" xmlns="http://www.w3.org/2000/svg">
<path fill-rule="evenodd" clip-rule="evenodd" d="M24.6508 8.85559L23.8109 7.39821C23.1004 6.16505 21.5258 5.73964 20.291 6.44722C19.7032 6.79348 19.0018 6.89172 18.3415 6.72027C17.6812 6.54882 17.1162 6.12176 16.7711 5.53327C16.5491 5.15921 16.4298 4.73316 16.4252 4.29821C16.4453 3.60086 16.1822 2.9251 15.6959 2.42487C15.2096 1.92464 14.5416 1.64254 13.844 1.64282H12.1519C11.4685 1.64282 10.8132 1.91516 10.331 2.39961C9.84891 2.88405 9.57971 3.54064 9.583 4.2241C9.56274 5.63521 8.41297 6.76848 7.00171 6.76833C6.56676 6.76381 6.14071 6.64452 5.76665 6.42251C4.5318 5.71494 2.95723 6.14035 2.24672 7.37351L1.34513 8.85559C0.635479 10.0872 1.0551 11.6608 2.28378 12.3755C3.08243 12.8366 3.57443 13.6888 3.57443 14.611C3.57443 15.5332 3.08243 16.3853 2.28378 16.8464C1.05666 17.5563 0.636582 19.1261 1.34513 20.354L2.19732 21.8237C2.53022 22.4244 3.08878 22.8677 3.74938 23.0554C4.40999 23.2432 5.11818 23.16 5.71725 22.8241C6.30617 22.4805 7.00795 22.3864 7.66662 22.5626C8.32528 22.7389 8.88625 23.171 9.22483 23.7628C9.44683 24.1368 9.56613 24.5629 9.57064 24.9979C9.57064 26.4235 10.7263 27.5791 12.1519 27.5791H13.844C15.2648 27.5791 16.4184 26.431 16.4252 25.0102C16.4219 24.3246 16.6928 23.6661 17.1776 23.1813C17.6624 22.6965 18.3209 22.4256 19.0065 22.4289C19.4404 22.4405 19.8647 22.5593 20.2416 22.7747C21.4732 23.4844 23.0468 23.0648 23.7615 21.8361L24.6508 20.354C24.995 19.7632 25.0894 19.0596 24.9133 18.3989C24.7371 17.7382 24.3048 17.1751 23.7121 16.8341C23.1194 16.4931 22.6871 15.9299 22.511 15.2693C22.3348 14.6086 22.4293 13.905 22.7735 13.3142C22.9973 12.9234 23.3213 12.5993 23.7121 12.3755C24.9334 11.6612 25.3521 10.0968 24.6508 8.86794V8.85559Z" stroke="white" stroke-width="1.5" stroke-linecap="round" stroke-linejoin="round"/>
<path opacity="0.4" d="M13.0042 18.168C14.9687 18.168 16.5612 16.5755 16.5612 14.6111C16.5612 12.6466 14.9687 11.0541 13.0042 11.0541C11.0398 11.0541 9.44727 12.6466 9.44727 14.6111C9.44727 16.5755 11.0398 18.168 13.0042 18.168Z" stroke="white" stroke-width="1.5" stroke-linecap="round" stroke-linejoin="round"/>
</svg>
