<svg width="14" height="11" viewBox="0 0 14 11" fill="none" xmlns="http://www.w3.org/2000/svg">
<path fill-rule="evenodd" clip-rule="evenodd" d="M12.4 10.1513C12.7314 10.1513 13 9.88236 13 9.55061V9.55061C13 9.21887 12.7314 8.94994 12.4 8.94994H1.6C1.26863 8.94994 1 9.21887 1 9.55061V9.55061C1 9.88236 1.26863 10.1513 1.6 10.1513H12.4ZM12.4 5.94658C12.7314 5.94658 13 5.67765 13 5.34591V5.34591C13 5.01416 12.7314 4.74523 12.4 4.74523H7.6C7.26863 4.74523 7 5.01416 7 5.34591V5.34591C7 5.67765 7.26863 5.94658 7.6 5.94658H12.4ZM12.4 1.74187C12.7314 1.74187 13 1.47294 13 1.1412V1.1412C13 0.809458 12.7314 0.540527 12.4 0.540527H7.6C7.26863 0.540527 7 0.809458 7 1.1412V1.1412C7 1.47294 7.26863 1.74187 7.6 1.74187H12.4Z" fill="white" stroke="white"/>
<path fill-rule="evenodd" clip-rule="evenodd" d="M1 1.92463C1 1.45284 1.51837 1.16521 1.918 1.41526L4.98592 3.33486C5.36192 3.57013 5.36192 4.11834 4.98592 4.3536L1.918 6.2732C1.51837 6.52325 1 6.23562 1 5.76383V1.92463ZM2.2 3.84423C2.2 4.20809 2.59979 4.42992 2.90799 4.23708C3.19798 4.05563 3.19798 3.63283 2.90799 3.45139C2.59979 3.25854 2.2 3.48037 2.2 3.84423Z" fill="white" fill-opacity="0.4"/>
</svg>
