<svg width="14" height="12" viewBox="0 0 14 12" fill="none" xmlns="http://www.w3.org/2000/svg">
<path opacity="0.4" fill-rule="evenodd" clip-rule="evenodd" d="M1.46155 8.90789C1.33914 8.90789 1.22174 8.95657 1.13518 9.04322C1.04863 9.12987 1 9.2474 1 9.36994C1 9.49249 1.04863 9.61001 1.13518 9.69667C1.22174 9.78332 1.33914 9.832 1.46155 9.832C1.58396 9.832 1.70135 9.88068 1.78791 9.96733C1.87447 10.054 1.9231 10.1715 1.9231 10.2941C1.9231 10.4166 1.97172 10.5341 2.05828 10.6208C2.14484 10.7074 2.26223 10.7561 2.38464 10.7561C2.50705 10.7561 2.62445 10.7074 2.71101 10.6208C2.79756 10.5341 2.84619 10.4166 2.84619 10.2941C2.84619 9.92642 2.70031 9.57384 2.44064 9.31389C2.18097 9.05393 1.82878 8.90789 1.46155 8.90789ZM1.46155 7.05966C1.33914 7.05966 1.22174 7.10834 1.13518 7.19499C1.04863 7.28164 1 7.39917 1 7.52171C1 7.64426 1.04863 7.76179 1.13518 7.84844C1.22174 7.93509 1.33914 7.98377 1.46155 7.98377C2.0736 7.98377 2.66058 8.22718 3.09337 8.66044C3.52615 9.0937 3.76929 9.68133 3.76929 10.2941C3.76929 10.4166 3.81791 10.5341 3.90447 10.6208C3.99103 10.7074 4.10842 10.7561 4.23083 10.7561C4.35324 10.7561 4.47064 10.7074 4.5572 10.6208C4.64376 10.5341 4.69238 10.4166 4.69238 10.2941C4.69147 9.43652 4.35078 8.61437 3.74508 8.008C3.13938 7.40163 2.31814 7.06057 1.46155 7.05966ZM1.46155 5.21143C1.33914 5.21143 1.22174 5.26011 1.13518 5.34676C1.04863 5.43341 1 5.55094 1 5.67348C1 5.79603 1.04863 5.91356 1.13518 6.00021C1.22174 6.08686 1.33914 6.13554 1.46155 6.13554C2.56286 6.13676 3.61872 6.57528 4.39747 7.35489C5.17622 8.1345 5.61426 9.19153 5.61548 10.2941C5.61548 10.4166 5.66411 10.5341 5.75066 10.6208C5.83722 10.7074 5.95462 10.7561 6.07703 10.7561C6.19944 10.7561 6.31683 10.7074 6.40339 10.6208C6.48995 10.5341 6.53857 10.4166 6.53857 10.2941C6.53705 8.94653 6.00166 7.65463 5.04986 6.70178C4.09806 5.74894 2.80759 5.21295 1.46155 5.21143Z" fill="white"/>
<path fill-rule="evenodd" clip-rule="evenodd" d="M12.7296 10.4855C12.9027 10.3122 13 10.0771 13 9.83205V1.51505C13 1.26996 12.9027 1.03491 12.7296 0.861608C12.5565 0.688304 12.3217 0.590942 12.0769 0.590942H1.92308C1.67826 0.590942 1.44347 0.688304 1.27036 0.861608C1.09725 1.03491 1 1.26996 1 1.51505V3.82533C1 3.94787 1.04863 4.0654 1.13518 4.15205C1.22174 4.2387 1.33913 4.28739 1.46154 4.28739C1.58395 4.28739 1.70134 4.2387 1.7879 4.15205C1.87445 4.0654 1.92308 3.94787 1.92308 3.82533V1.51505H12.0769V9.83205H7.92308C7.80067 9.83205 7.68328 9.88073 7.59672 9.96738C7.51016 10.054 7.46154 10.1716 7.46154 10.2941C7.46154 10.4167 7.51016 10.5342 7.59672 10.6208C7.68328 10.7075 7.80067 10.7562 7.92308 10.7562H12.0769C12.3217 10.7562 12.5565 10.6588 12.7296 10.4855Z" fill="white" stroke="white"/>
</svg>
