<svg width="14" height="15" viewBox="0 0 14 15" fill="none" xmlns="http://www.w3.org/2000/svg">
<path opacity="0.2" d="M14 7.00784C14 10.879 10.8661 14.0157 7 14.0157C3.1339 14.0157 0 10.879 0 7.00784C0 3.13811 3.1339 0 7 0C10.8661 0 14 3.13811 14 7.00784Z" fill="white"/>
<path d="M9.50102 9.68099C9.40932 9.68099 9.31692 9.65717 9.23222 9.60741L6.48402 7.96618C6.32582 7.87087 6.22852 7.69918 6.22852 7.51417V3.97731C6.22852 3.68718 6.46372 3.45172 6.75352 3.45172C7.04332 3.45172 7.27852 3.68718 7.27852 3.97731V7.21564L9.77052 8.7034C10.019 8.85267 10.1009 9.17503 9.95252 9.42451C9.85382 9.58919 9.67952 9.68099 9.50102 9.68099Z" fill="white"/>
</svg>
