<svg width="16" height="15" viewBox="0 0 16 15" fill="none" xmlns="http://www.w3.org/2000/svg">
<path fill-rule="evenodd" clip-rule="evenodd" d="M8.00008 1.21619C7.92541 1.21619 7.74161 1.23646 7.64397 1.42942L6.14568 4.38962C5.90855 4.85745 5.45152 5.18258 4.9231 5.25717L1.56878 5.73472C1.34724 5.76635 1.27175 5.9285 1.24877 5.99661C1.22826 6.06228 1.19544 6.22931 1.34806 6.37363L3.77354 8.67628C4.16001 9.04356 4.3356 9.57301 4.2437 10.0911L3.67261 13.3424C3.63733 13.5459 3.76615 13.6643 3.82359 13.7048C3.88431 13.7502 4.04677 13.8402 4.2478 13.7364L7.24683 12.2C7.71946 11.9592 8.28234 11.9592 8.75332 12.2L11.7515 13.7356C11.9534 13.8386 12.1158 13.7486 12.1774 13.7048C12.2348 13.6643 12.3636 13.5459 12.3284 13.3424L11.7556 10.0911C11.6637 9.57301 11.8393 9.04356 12.2258 8.67628L14.6513 6.37363C14.8047 6.22931 14.7719 6.06147 14.7506 5.99661C14.7284 5.9285 14.6529 5.76635 14.4314 5.73472L11.0771 5.25717C10.5495 5.18258 10.0924 4.85745 9.85529 4.38881L8.35536 1.42942C8.25854 1.23646 8.07474 1.21619 8.00008 1.21619ZM4.05908 14.9996C3.7202 14.9996 3.38379 14.8942 3.09578 14.6867C2.59854 14.3267 2.35485 13.7324 2.46069 13.134L3.03178 9.88273C3.05311 9.76192 3.01127 9.63949 2.92101 9.55355L0.49553 7.2509C0.0491629 6.82848 -0.11084 6.20417 0.0778813 5.62446C0.268244 5.03826 0.772048 4.61908 1.39319 4.53151L4.7475 4.05396C4.87715 4.03612 4.98874 3.95747 5.04454 3.84558L6.54364 0.884573C6.82016 0.338911 7.37812 0 8.00008 0C8.62204 0 9.18 0.338911 9.45651 0.884573L10.9564 3.84477C11.0131 3.95747 11.1238 4.03612 11.2526 4.05396L14.607 4.53151C15.2281 4.61908 15.7319 5.03826 15.9223 5.62446C16.111 6.20417 15.9502 6.82848 15.5038 7.2509L13.0783 9.55355C12.9881 9.63949 12.947 9.76192 12.9684 9.88192L13.5403 13.134C13.6453 13.7332 13.4016 14.3275 12.9036 14.6867C12.3989 15.0523 11.7417 15.1018 11.1845 14.8148L8.18716 13.2799C8.06982 13.2199 7.92951 13.2199 7.81218 13.2799L4.81479 14.8156C4.57519 14.9388 4.31673 14.9996 4.05908 14.9996Z" fill="#999999"/>
</svg>
