<svg width="14" height="15" viewBox="0 0 14 15" fill="none" xmlns="http://www.w3.org/2000/svg">
<path d="M7.68341 1.32935L9.24195 4.62988C9.35677 4.86901 9.57592 5.03507 9.82867 5.07197L13.3294 5.60926C13.5339 5.63952 13.7194 5.75318 13.8447 5.92662C13.9687 6.09785 14.0219 6.31483 13.9918 6.52813C13.9673 6.70526 13.8881 6.8691 13.767 6.99457L11.2304 9.58584C11.0448 9.76666 10.9608 10.0346 11.0056 10.2966L11.6302 13.9396C11.6967 14.3794 11.4201 14.7942 11.0056 14.8776C10.8348 14.9064 10.6597 14.8761 10.5057 14.7935L7.38305 13.079C7.1513 12.9557 6.87754 12.9557 6.64579 13.079L3.52312 14.7935C3.13944 15.0082 2.66403 14.8621 2.45049 14.4636C2.37137 14.3049 2.34336 14.1241 2.36927 13.9477L2.9938 10.304C3.03861 10.0427 2.9539 9.7733 2.76906 9.59248L0.232412 7.00269C-0.0693531 6.69566 -0.078455 6.1901 0.212107 5.87201C0.218409 5.86537 0.22541 5.85799 0.232412 5.8506C0.352838 5.72145 0.511071 5.63952 0.681908 5.61812L4.18266 5.08009C4.43471 5.04245 4.65386 4.87786 4.76939 4.63726L6.27191 1.32935C6.40564 1.04594 6.6829 0.869551 6.98396 0.876932H7.07778C7.33894 0.910144 7.56649 1.08063 7.68341 1.32935Z" fill="url(#paint0_linear_2222_3800)"/>
<defs>
<linearGradient id="paint0_linear_2222_3800" x1="0" y1="0.876709" x2="14.2044" y2="1.44214" gradientUnits="userSpaceOnUse">
<stop stop-color="#5A0DFF"/>
<stop offset="0.395" stop-color="#FF29B8"/>
<stop offset="1" stop-color="#FF581C"/>
</linearGradient>
</defs>
</svg>
